<?xml version="1.0" encoding="iso-8859-1"?>
<!-- Uploaded to: SVG Repo, www.svgrepo.com, Generator: SVG Repo Mixer Tools -->
<!DOCTYPE svg PUBLIC "-//W3C//DTD SVG 1.1//EN" "http://www.w3.org/Graphics/SVG/1.1/DTD/svg11.dtd">
<svg  fill="currentColor" version="1.1" id="Capa_1" xmlns="http://www.w3.org/2000/svg" xmlns:xlink="http://www.w3.org/1999/xlink" 
	 width="800px" height="800px" viewBox="0 0 46.199 46.2" xml:space="preserve"
	>
<g>
	<g>
		<path d="M46.199,30.668V10.711c0-4.337-3.583-7.863-7.921-7.863H7.907C3.57,2.848,0,6.374,0,10.711v19.958
			c0,2.652,1.34,5.004,3.356,6.43l-0.238,0.003c-0.003,0-0.006,0-0.01,0c-1.688,0-3.063,1.363-3.065,3.054
			c-0.007,1.693,1.362,3.066,3.056,3.072l39.87,0.124c0.004,0,0.008,0,0.01,0c1.689,0,3.062-1.366,3.067-3.055
			c0.005-1.694-1.364-3.071-3.058-3.077h-0.333C44.771,35.807,46.199,33.399,46.199,30.668z M42.084,30.668
			c0,2.127-1.679,3.822-3.807,3.822H7.907c-2.127,0-3.951-1.695-3.951-3.822V10.711c0-2.126,1.824-3.829,3.951-3.829h30.371
			c2.128,0,3.807,1.703,3.807,3.829L42.084,30.668L42.084,30.668z"/>
		<path d="M17.185,24.528l-3.909-3.908l4.019-4.019c0.593-0.592,0.593-1.551,0-2.142c-0.592-0.592-1.55-0.592-2.143,0l-5.089,5.089
			c-0.284,0.284-0.443,0.669-0.443,1.071s0.159,0.787,0.443,1.071l4.979,4.979c0.295,0.296,0.684,0.445,1.071,0.445
			c0.387,0,0.774-0.148,1.071-0.445C17.776,26.079,17.776,25.12,17.185,24.528z"/>
		<path d="M29.753,14.459c-0.592-0.592-1.551-0.592-2.143,0c-0.591,0.591-0.591,1.55,0,2.142l4.019,4.019l-3.906,3.908
			c-0.593,0.592-0.593,1.551,0,2.143c0.295,0.295,0.684,0.443,1.07,0.443s0.773-0.147,1.07-0.443l4.979-4.979
			c0.283-0.284,0.443-0.669,0.443-1.071s-0.16-0.787-0.443-1.071L29.753,14.459z"/>
		<path d="M26.311,9.986c-0.777-0.305-1.658,0.078-1.963,0.859l-7.174,18.334c-0.306,0.778,0.079,1.657,0.858,1.963
			c0.181,0.071,0.367,0.104,0.552,0.104c0.604,0,1.177-0.365,1.41-0.963l7.174-18.334C27.473,11.169,27.09,10.291,26.311,9.986z"/>
	</g>
</g>
</svg>