<!-- SPRITE: include once -->
<svg xmlns="http://www.w3.org/2000/svg" aria-hidden="true">
  <defs>
    <g id="icon-laptop-code" fill="none" stroke="currentColor" stroke-width="1.5" stroke-linecap="round" stroke-linejoin="round">
      <rect x="3" y="5" width="18" height="12" rx="2"/>
      <path d="M2 17h20M9 9l-2 2 2 2M15 13l2-2-2-2"/>
    </g>

    <g id="icon-palette-brush" fill="none" stroke="currentColor" stroke-width="1.5" stroke-linecap="round" stroke-linejoin="round">
      <path d="M12 3a9 9 0 1 0 0 18c2 0 2.5-1.5 2-3s-.5-3 2-3 3-2.5 3-4a8 8 0 0 0-7-8z"/>
      <circle cx="8" cy="9" r="1"/><circle cx="12" cy="7" r="1"/><circle cx="7" cy="13" r="1"/>
      <path d="M18.5 18.5c-1.5 1.5-3 .5-3 .5s-.9-1.6.6-3.1l3-3s1.6-.9 3 .5c0 0 .2 1.8-1.4 3.4l-2.2 1.7z"/>
    </g>

    <g id="icon-sketchbook" fill="none" stroke="currentColor" stroke-width="1.5" stroke-linecap="round" stroke-linejoin="round">
      <rect x="5" y="4" width="14" height="16" rx="2"/>
      <path d="M9 4v16M7 7h2M7 10h2M7 13h2"/>
    </g>

    <g id="icon-mountain-sun" fill="none" stroke="currentColor" stroke-width="1.5" stroke-linecap="round" stroke-linejoin="round">
      <path d="M3 19l6-8 3 4 3-4 6 8H3z"/>
      <circle cx="6" cy="6" r="2"/>
    </g>

    <g id="icon-running-shoe" fill="none" stroke="currentColor" stroke-width="1.5" stroke-linecap="round" stroke-linejoin="round">
      <path d="M3 16c2 0 4-1 5-3l2 2 4 1h5v2H6a6 6 0 0 1-3-2z"/>
      <path d="M10 10l2 2M8 9l1 1M12 9l1 1"/>
    </g>

    <g id="icon-heartbeat" fill="none" stroke="currentColor" stroke-width="1.5" stroke-linecap="round" stroke-linejoin="round">
      <path d="M2 12h5l2-4 3 8 2-4h6"/>
      <path d="M12 20s-7-4.3-7-9a4 4 0 0 1 7-2 4 4 0 0 1 7 2c0 4.7-7 9-7 9z"/>
    </g>

    <g id="icon-football" fill="none" stroke="currentColor" stroke-width="1.5" stroke-linecap="round" stroke-linejoin="round">
      <ellipse cx="12" cy="12" rx="9" ry="6"/>
      <path d="M3.5 9.5c2 .8 5.2 1.3 8.5 1.3s6.5-.5 8.5-1.3M3.5 14.5c2-.8 5.2-1.3 8.5-1.3s6.5.5 8.5 1.3"/>
      <path d="M9 10.5l6 3m0-3l-6 3"/>
    </g>

    <!-- Swayambhu-inspired stupa (simple silhouette) -->
    <g id="icon-swayambhu" fill="none" stroke="currentColor" stroke-width="1.5" stroke-linecap="round" stroke-linejoin="round">
      <path d="M12 3l2 3H10l2-3zM7 9h10M6 12h12M5 15h14M4 18h16"/>
      <path d="M8 9c0 2.5 1.8 4.5 4 4.5s4-2 4-4.5"/>
    </g>

    <!-- Simple pagoda/temple -->
    <g id="icon-pagoda" fill="none" stroke="currentColor" stroke-width="1.5" stroke-linecap="round" stroke-linejoin="round">
      <path d="M4 10h16l-3-3H7l-3 3z"/>
      <path d="M6 14h12l-3-3H9l-3 3z"/>
      <path d="M8 18h8l-3-3h-2l-3 3z"/>
      <rect x="11" y="18" width="2" height="3"/>
    </g>

    <g id="icon-hands-help" fill="none" stroke="currentColor" stroke-width="1.5" stroke-linecap="round" stroke-linejoin="round">
      <path d="M7 12c2-2 4-2 6 0l3 3"/>
      <path d="M17 12c-2 2-4 2-6 0l-3-3"/>
      <path d="M4 14l3-3m10 2l3 3"/>
    </g>

    <g id="icon-bulb" fill="none" stroke="currentColor" stroke-width="1.5" stroke-linecap="round" stroke-linejoin="round">
      <path d="M9 18h6M10 21h4"/>
      <path d="M12 4a6 6 0 0 0-3 11c.5.5 1 1.5 1 2h4c0-.5.5-1.5 1-2a6 6 0 0 0-3-11z"/>
    </g>

    <g id="icon-heart" fill="none" stroke="currentColor" stroke-width="1.5" stroke-linecap="round" stroke-linejoin="round">
      <path d="M12 20s-7-4.3-7-9a4 4 0 0 1 7-2 4 4 0 0 1 7 2c0 4.7-7 9-7 9z"/>
    </g>

    <g id="icon-leaf" fill="none" stroke="currentColor" stroke-width="1.5" stroke-linecap="round" stroke-linejoin="round">
      <path d="M4 14c6-6 12-6 16-4-2 6-8 10-14 8"/>
      <path d="M10 10c0 4-2 8-6 10"/>
    </g>

    <g id="icon-star" fill="none" stroke="currentColor" stroke-width="1.5" stroke-linecap="round" stroke-linejoin="round">
      <path d="M12 4l2 4 4 1-3 3 .7 4-3.7-2-3.7 2 .7-4-3-3 4-1 2-4z"/>
    </g>

    <g id="icon-cloud" fill="none" stroke="currentColor" stroke-width="1.5" stroke-linecap="round" stroke-linejoin="round">
      <path d="M6 16h10a3 3 0 0 0 0-6 5 5 0 0 0-9-1A3 3 0 0 0 6 16z"/>
    </g>

    <g id="icon-sparkles" fill="none" stroke="currentColor" stroke-width="1.5" stroke-linecap="round" stroke-linejoin="round">
      <path d="M6 12l2 2-2 2-2-2 2-2zM16 6l1.5 2L16 10l-1.5-2L16 6zM18 14l1 2-1 2-1-2 1-2z"/>
    </g>
  </defs>
</svg>
